<svg xmlns="http://www.w3.org/2000/svg" xmlns:xlink="http://www.w3.org/1999/xlink" id="Layer_1" data-name="Layer 1" viewBox="0 0 334.81 183.04"><defs><style>.cls-1,.cls-11,.cls-2,.cls-3,.cls-8{stroke:#231f20}.cls-1,.cls-11,.cls-2,.cls-3,.cls-5,.cls-8,.cls-9{stroke-miterlimit:10}.cls-1,.cls-8{opacity:.4}.cls-1{fill:url(#linear-gradient)}.cls-11,.cls-2,.cls-3,.cls-5,.cls-9{fill:none}.cls-2{stroke-dasharray:8 2 2 2 2 2}.cls-3{stroke-dasharray:5}.cls-4,.cls-7{fill:#231f20}.cls-5{stroke:#8d4b9d}.cls-11,.cls-5,.cls-9{stroke-width:2px}.cls-6{fill:#8d4b9d}.cls-7{font-size:12px;font-family:MyriadPro-Regular,Myriad Pro}.cls-8{fill:url(#linear-gradient-2)}.cls-9{stroke:#51b6e7}.cls-10{fill:#51b6e7}.cls-12{letter-spacing:.01em}.cls-13{letter-spacing:-.01em}.cls-14{letter-spacing:0}.cls-15{letter-spacing:-.01em}</style><linearGradient id="linear-gradient" x1="57.73" x2="57.73" y1="123.15" y2="8.69" gradientUnits="userSpaceOnUse"><stop offset="0" stop-color="#fff"/><stop offset=".07" stop-color="#f9f9f9"/><stop offset=".16" stop-color="#e8e9e9"/><stop offset=".26" stop-color="#cdcdcf"/><stop offset=".37" stop-color="#a6a8aa"/><stop offset=".46" stop-color="#848689"/><stop offset="1"/></linearGradient><linearGradient id="linear-gradient-2" x1="277.08" x2="277.08" y1="123.15" y2="8.69" xlink:href="#linear-gradient"/></defs><title>Measurement2</title><circle cx="57.73" cy="72.2" r="57.23" class="cls-1"/><path d="M285.47,456.93" class="cls-2" transform="translate(-112.54 -279.44)"/><path d="M286.1,253.78" class="cls-2" transform="translate(-112.54 -279.44)"/><ellipse cx="57.73" cy="72.2" class="cls-3" rx="57.23" ry="7.89"/><ellipse cx="59.38" cy="72.2" class="cls-3" rx="16.11" ry="57.23"/><line x1="57.76" x2="114.97" y1="72.2" y2="72.2" class="cls-4"/><line x1="57.76" x2="112.68" y1="72.2" y2="72.2" class="cls-5"/><polygon points="108.7 75.59 112.09 72.2 108.7 68.81 111.58 68.81 114.97 72.2 111.58 75.59 108.7 75.59" class="cls-6"/><text class="cls-7" transform="translate(55.86 10.04)">0</text><text class="cls-7" transform="translate(55.86 141.63)">1</text><circle cx="277.08" cy="72.2" r="57.23" class="cls-8"/><path d="M446.87,259.48" class="cls-2" transform="translate(-112.54 -279.44)"/><ellipse cx="277.08" cy="72.2" class="cls-3" rx="57.23" ry="7.89"/><ellipse cx="278.72" cy="72.2" class="cls-3" rx="16.11" ry="57.23"/><line x1="278.72" x2="278.72" y1="72.2" y2="129.43" class="cls-4"/><line x1="278.72" x2="278.72" y1="72.2" y2="127.15" class="cls-9"/><polygon points="275.33 123.16 278.72 126.56 282.11 123.16 282.11 126.04 278.72 129.43 275.33 126.04 275.33 123.16" class="cls-10"/><text class="cls-7" transform="translate(275.2 10.04)">0</text><text class="cls-7" transform="translate(275.2 141.63)">1</text><line x1="132.8" x2="205.29" y1="72.2" y2="72.2" class="cls-4"/><line x1="132.8" x2="197.25" y1="72.2" y2="72.2" class="cls-11"/><polygon points="195.62 77.78 205.29 72.2 195.62 66.61 195.62 77.78" class="cls-4"/><text class="cls-7" transform="translate(132.92 91.94)"><tspan class="cls-12">M</tspan><tspan x="9.72" y="0">easu</tspan><tspan x="32.88" y="0" class="cls-13">r</tspan><tspan x="36.68" y="0">eme</tspan><tspan x="58.72" y="0" class="cls-14">n</tspan><tspan x="65.33" y="0" xml:space="preserve">t </tspan><tspan x="0" y="14.4">with </tspan><tspan x="24.82" y="14.4" class="cls-15">r</tspan><tspan x="28.62" y="14.4">esult 1</tspan></text></svg>